<svg xmlns="http://www.w3.org/2000/svg" viewBox="0 0 32 32" width="32" height="32">
  <defs>
    <linearGradient id="bg" x1="0" y1="0" x2="1" y2="1">
      <stop offset="0%" stop-color="#a855f7"/>
      <stop offset="100%" stop-color="#7c3aed"/>
    </linearGradient>
  </defs>
  <!-- 圆形背景 -->
  <circle cx="16" cy="16" r="15" fill="url(#bg)"/>
  <!-- 日记本轮廓 -->
  <rect x="9" y="7" width="14" height="18" rx="1.5" fill="white" fill-opacity="0.95"/>
  <!-- 书脊 -->
  <rect x="9" y="7" width="2.5" height="18" rx="0.75" fill="white" fill-opacity="0.6"/>
  <!-- 文字线 -->
  <rect x="13" y="11.5" width="7" height="1.2" rx="0.6" fill="#c084fc"/>
  <rect x="13" y="14.5" width="5" height="1.2" rx="0.6" fill="#c084fc"/>
  <rect x="13" y="17.5" width="6" height="1.2" rx="0.6" fill="#c084fc"/>
  <rect x="13" y="20.5" width="4" height="1.2" rx="0.6" fill="#c084fc"/>
  <!-- 小红心 -->
  <path d="M21.5 8.8 C21.5 7.8 20.7 7 19.7 7 C18.9 7 18.3 7.4 18 8 C17.7 7.4 17.1 7 16.3 7 C15.3 7 14.5 7.8 14.5 8.8 C14.5 11 18 12.8 18 12.8 C18 12.8 21.5 11 21.5 8.8Z" fill="#f472b6"/>
</svg>